<svg width="23" height="23" viewBox="0 0 23 23" fill="none" xmlns="http://www.w3.org/2000/svg">
<g clip-path="url(#clip0_88_5292)">
<path d="M11.5 21.901C11.9025 21.8917 12.2887 21.7404 12.5903 21.4739C12.892 21.2073 13.0896 20.8426 13.1483 20.4443H9.78778C9.84814 20.8534 10.055 21.2267 10.37 21.4946C10.685 21.7626 11.0865 21.907 11.5 21.901Z" fill="white"/>
<path d="M20.7703 17.7803C20.1542 17.2311 19.6148 16.6014 19.1667 15.9083C18.6774 14.9516 18.3842 13.9068 18.3042 12.8353V9.67917C18.3016 9.29581 18.2674 8.91331 18.2019 8.53556C17.6991 8.43504 17.2158 8.25381 16.7708 7.99889C16.9404 8.54504 17.0266 9.11368 17.0264 9.68556V12.8417C17.1047 14.1489 17.4643 15.4237 18.0806 16.5792C18.5216 17.2781 19.045 17.9216 19.6394 18.4958H3.2775C3.87193 17.9216 4.3953 17.2781 4.83639 16.5792C5.45267 15.4237 5.81225 14.1489 5.89055 12.8417V9.67917C5.88719 8.93978 6.02971 8.20698 6.30995 7.52274C6.59018 6.8385 7.00264 6.21626 7.52369 5.69165C8.04474 5.16704 8.66416 4.75036 9.34648 4.46546C10.0288 4.18057 10.7606 4.03307 11.5 4.03139C12.5821 4.03226 13.64 4.35228 14.5411 4.95139C14.4418 4.58658 14.386 4.21128 14.375 3.83334V3.43084C13.7079 3.10268 12.9912 2.88682 12.2539 2.79195V1.98695C12.2539 1.76074 12.164 1.5438 12.0041 1.38385C11.8441 1.22389 11.6272 1.13403 11.401 1.13403C11.1748 1.13403 10.9578 1.22389 10.7979 1.38385C10.6379 1.5438 10.5481 1.76074 10.5481 1.98695V2.82389C8.89698 3.0568 7.38592 3.87917 6.29383 5.13918C5.20175 6.39919 4.60238 8.01176 4.60639 9.67917V12.8353C4.52637 13.9068 4.23313 14.9516 3.74389 15.9083C3.30362 16.5998 2.7729 17.2294 2.16583 17.7803C2.09768 17.8402 2.04306 17.9138 2.00561 17.9965C1.96815 18.0791 1.94872 18.1687 1.94861 18.2594V19.1283C1.94861 19.2978 2.01592 19.4603 2.13573 19.5801C2.25555 19.6999 2.41805 19.7672 2.5875 19.7672H20.3486C20.5181 19.7672 20.6806 19.6999 20.8004 19.5801C20.9202 19.4603 20.9875 19.2978 20.9875 19.1283V18.2594C20.9874 18.1687 20.968 18.0791 20.9305 17.9965C20.893 17.9138 20.8384 17.8402 20.7703 17.7803Z" fill="white"/>
<path d="M19.1667 7.0278C20.9309 7.0278 22.3611 5.5976 22.3611 3.83336C22.3611 2.06912 20.9309 0.638916 19.1667 0.638916C17.4024 0.638916 15.9722 2.06912 15.9722 3.83336C15.9722 5.5976 17.4024 7.0278 19.1667 7.0278Z" fill="#C1272D"/>
</g>
<defs>
<clipPath id="clip0_88_5292">
<rect width="23" height="23" fill="white"/>
</clipPath>
</defs>
</svg>
