<svg width="23" height="22" viewBox="0 0 23 22" fill="none" xmlns="http://www.w3.org/2000/svg">
<g clip-path="url(#clip0_88_5291)">
<path fill-rule="evenodd" clip-rule="evenodd" d="M19.8296 2.3818C16.1473 -0.988754 10.3901 -0.739168 6.96111 2.88173C5.43784 4.48768 4.57473 6.60807 4.54339 8.82131C4.51204 11.0345 5.31476 13.1785 6.79194 14.827L0.18587 20.9604C0.125861 21.0163 0.0780027 21.0839 0.0452788 21.1591C0.0125548 21.2343 -0.0043335 21.3154 -0.0043335 21.3974C-0.0043335 21.4794 0.0125548 21.5605 0.0452788 21.6357C0.0780027 21.7108 0.125861 21.7785 0.18587 21.8343C0.313318 21.9595 0.48325 22.0005 0.652422 22.0005C0.821594 22.0005 0.990767 21.9595 1.11746 21.8343L7.68104 15.7009C9.3439 17.1244 11.4609 17.9066 13.6499 17.9062H13.9882C16.4006 17.8235 18.6446 16.7827 20.3379 15.0348C21.1469 14.1811 21.7771 13.1744 22.1915 12.0737C22.6059 10.9729 22.7962 9.80051 22.751 8.62524C22.6661 6.25304 21.6078 4.00525 19.8296 2.3818V2.3818ZM19.4063 14.1609C17.978 15.6631 16.0173 16.5449 13.9457 16.6166C11.8742 16.7016 9.85221 15.969 8.31601 14.5766C5.14118 11.7052 4.97201 6.79393 7.8927 3.71393C9.41677 2.09049 11.5333 1.25828 13.6499 1.25828C15.5548 1.25828 17.4597 1.92359 18.983 3.29745C20.507 4.71304 21.3961 6.58607 21.4811 8.66697C21.5277 9.67575 21.3677 10.6834 21.0109 11.6282C20.6541 12.5729 20.1081 13.4348 19.4063 14.1609Z" fill="white"/>
</g>
<defs>
<clipPath id="clip0_88_5291">
<rect width="22.7586" height="22" fill="white"/>
</clipPath>
</defs>
</svg>
