<svg width="20" height="19" viewBox="0 0 20 19" fill="none" xmlns="http://www.w3.org/2000/svg">
<path d="M18.8217 16.6462C18.2056 16.097 17.6662 15.4674 17.2181 14.7743C16.7288 13.8176 16.4356 12.7728 16.3556 11.7012V8.54514C16.353 8.16177 16.3188 7.77927 16.2533 7.40153C15.7505 7.30101 15.2672 7.11978 14.8222 6.86486C14.9918 7.41101 15.078 7.97965 15.0778 8.55153V11.7076C15.1561 13.0148 15.5157 14.2897 16.1319 15.4451C16.573 16.1441 17.0964 16.7876 17.6908 17.3618H1.32889C1.92332 16.7876 2.44669 16.1441 2.88778 15.4451C3.50406 14.2897 3.86364 13.0148 3.94194 11.7076V8.54514C3.93858 7.80574 4.0811 7.07295 4.36134 6.38871C4.64158 5.70447 5.05403 5.08223 5.57508 4.55762C6.09614 4.033 6.71555 3.61632 7.39787 3.33143C8.08018 3.04654 8.81199 2.89903 9.55139 2.89736C10.6335 2.89823 11.6914 3.21824 12.5925 3.81736C12.4932 3.45255 12.4374 3.07724 12.4264 2.69931V2.29681C11.7593 1.96865 11.0426 1.75278 10.3053 1.65792V0.852917C10.3053 0.626709 10.2154 0.409766 10.0555 0.249814C9.89551 0.0898607 9.67857 0 9.45236 0C9.22615 0 9.00921 0.0898607 8.84926 0.249814C8.68931 0.409766 8.59944 0.626709 8.59944 0.852917V1.68986C6.94837 1.92277 5.43731 2.74514 4.34522 4.00515C3.25314 5.26516 2.65377 6.87773 2.65778 8.54514V11.7012C2.57776 12.7728 2.28452 13.8176 1.79528 14.7743C1.35501 15.4658 0.824291 16.0954 0.217222 16.6462C0.149073 16.7061 0.0944542 16.7798 0.057 16.8624C0.0195458 16.9451 0.00011487 17.0347 0 17.1254V17.9943C0 18.1637 0.0673113 18.3263 0.187126 18.4461C0.306941 18.5659 0.469445 18.6332 0.638889 18.6332H18.4C18.5694 18.6332 18.7319 18.5659 18.8518 18.4461C18.9716 18.3263 19.0389 18.1637 19.0389 17.9943V17.1254C19.0388 17.0347 19.0193 16.9451 18.9819 16.8624C18.9444 16.7798 18.8898 16.7061 18.8217 16.6462Z" fill="white"/>
</svg>
